HIERARCHY
ROOT Hips
{
	OFFSET	0.00	0.00	0.00
	CHANNELS 6 Xposition Yposition Zposition Zrotation Xrotation Yrotation
	JOINT LeftUpLeg
	{
		OFFSET	 0.126116	-0.014019	-0.065224
		CHANNELS 3 Zrotation Xrotation Yrotation
		JOINT LeftLeg
		{
			OFFSET	 0.000000	 0.000000	 0.569914
			CHANNELS 3 Zrotation Xrotation Yrotation
			JOINT LeftFoot
			{
				OFFSET	 0.000000	 0.000000	 0.544423
				CHANNELS 3 Zrotation Xrotation Yrotation
				JOINT LeftToeBase
				{
					OFFSET	 0.000000	 0.000000	 0.207117
					CHANNELS 3 Zrotation Xrotation Yrotation
					End Site
					{
						OFFSET	 0.000000	 0.000000	 0.207117
					}
				}
			}
		}
	}
	JOINT RightUpLeg
	{
		OFFSET	-0.124023	-0.008373	-0.065224
		CHANNELS 3 Zrotation Xrotation Yrotation
		JOINT RightLeg
		{
			OFFSET	 0.000000	 0.000000	 0.570047
			CHANNELS 3 Zrotation Xrotation Yrotation
			JOINT RightFoot
			{
				OFFSET	 0.000000	 0.000000	 0.544354
				CHANNELS 3 Zrotation Xrotation Yrotation
				JOINT RightToeBase
				{
					OFFSET	 0.000000	 0.000000	 0.207540
					CHANNELS 3 Zrotation Xrotation Yrotation
					End Site
					{
						OFFSET	 0.000000	 0.000000	 0.207540
					}
				}
			}
		}
	}
	JOINT Spine
	{
		OFFSET	 0.000184	-0.007763	 0.117403
		CHANNELS 3 Zrotation Xrotation Yrotation
		JOINT Spine1
		{
			OFFSET	 0.000000	 0.000000	 0.137269
			CHANNELS 3 Zrotation Xrotation Yrotation
			JOINT Spine2
			{
				OFFSET	 0.000000	 0.000000	 0.156879
				CHANNELS 3 Zrotation Xrotation Yrotation
				JOINT LeftShoulder
				{
					OFFSET	 0.080501	-0.002496	 0.160144
					CHANNELS 3 Zrotation Xrotation Yrotation
					JOINT LeftArm
					{
						OFFSET	 0.000000	 0.000000	 0.164363
						CHANNELS 3 Zrotation Xrotation Yrotation
						JOINT LeftForeArm
						{
							OFFSET	 0.000000	 0.000000	 0.364576
							CHANNELS 3 Zrotation Xrotation Yrotation
							JOINT LeftHand
							{
								OFFSET	 0.000000	 0.000000	 0.360812
								CHANNELS 3 Zrotation Xrotation Yrotation
								JOINT LeftHandIndex1
								{
									OFFSET	 0.000000	 0.000000	 0.086006
									CHANNELS 3 Zrotation Xrotation Yrotation
									JOINT LeftHandIndex2
									{
										OFFSET	 0.000000	 0.000000	 0.047236
										CHANNELS 3 Zrotation Xrotation Yrotation
										JOINT LeftHandIndex3
										{
											OFFSET	-0.004284	-0.000551	 0.038166
											CHANNELS 3 Zrotation Xrotation Yrotation
											End Site
											{
												OFFSET	-0.004284	-0.000551	 0.038166
											}
										}
									}
								}
							}
						}
					}
				}
				JOINT Neck
				{
					OFFSET	 0.000000	 0.000000	 0.176489
					CHANNELS 3 Zrotation Xrotation Yrotation
					JOINT Head
					{
						OFFSET	 0.000000	-0.001747	 0.077940
						CHANNELS 3 Zrotation Xrotation Yrotation
						End Site
						{
							OFFSET	 0.000000	-0.001747	 0.077940
						}
					}
				}
				JOINT RightShoulder
				{
					OFFSET	-0.080363	 0.000306	 0.159706
					CHANNELS 3 Zrotation Xrotation Yrotation
					JOINT RightArm
					{
						OFFSET	 0.000000	 0.000000	 0.164196
						CHANNELS 3 Zrotation Xrotation Yrotation
						JOINT RightForeArm
						{
							OFFSET	 0.000000	 0.000000	 0.365611
							CHANNELS 3 Zrotation Xrotation Yrotation
							JOINT RightHand
							{
								OFFSET	 0.000000	 0.000000	 0.360648
								CHANNELS 3 Zrotation Xrotation Yrotation
								JOINT RightHandIndex1
								{
									OFFSET	 0.000000	 0.000000	 0.069977
									CHANNELS 3 Zrotation Xrotation Yrotation
									JOINT RightHandIndex2
									{
										OFFSET	 0.000000	 0.000000	 0.052305
										CHANNELS 3 Zrotation Xrotation Yrotation
										JOINT RightHandIndex3
										{
											OFFSET	 0.009002	-0.000782	 0.042196
											CHANNELS 3 Zrotation Xrotation Yrotation
											End Site
											{
												OFFSET	 0.009002	-0.000782	 0.042196
											}
										}
									}
								}
							}
						}
					}
				}
			}
		}
	}
}
MOTION
Frames:    8
Frame Time: 0.03333334
-0.000255	 0.045857	 1.274427	-0.009692	 3.608769	 0.647043	 1.341043	-7.813251	 178.234000	 2.181126	-14.727200	 0.660797	 0.119493	 71.785730	-0.188686	-2.385833	 28.452750	 0.000004	 5.946373	-7.102506	-178.692200	-0.749290	-12.744230	 0.971786	 5.601999	 70.547160	 0.681121	 2.384659	 28.388700	-0.000001	-0.395461	 7.893880	 0.377244	-0.172295	-9.219086	-0.149830	 0.863243	 12.756280	 0.241061	-90.950770	 68.301370	-177.356800	-6.394056	-0.008073	-13.311350	 25.127860	-3.190814	-12.047160	-5.861164	-8.856506	-4.599604	-2.027600	 6.559038	 9.033609	-5.188889	 0.308190	 3.541030	-5.234859	 0.342567	 0.430617	 4.707419	 21.884690	-7.950908	-3.980356	-15.873230	 1.880242	 88.678090	 66.368900	 176.742500	 9.762226	 5.004313	 9.427081	-26.645390	-8.483241	 23.198850	 2.601883	-8.023940	 5.379061	 1.803333	 3.979147	-15.098590	 4.898592	 3.004813	-9.310344	 5.224449	 0.395017	 2.014677
-0.001040	 0.050827	 1.273431	 0.115676	 5.114021	 0.746985	 0.976511	-10.208640	 178.096400	 2.253515	-15.793270	 0.711381	 0.302644	 72.115490	-0.397283	-2.385833	 28.452760	 0.000004	 5.913220	-9.330095	-178.677400	-0.878849	-13.534100	 1.000427	 5.732821	 70.653880	 0.694446	 2.384659	 28.388700	-0.000001	-0.235510	 8.519869	 0.416829	-0.221357	-12.935660	-0.343928	 0.681703	 16.439690	 0.329504	-90.825940	 66.907940	-177.211800	-5.642735	-1.020545	-13.399300	 23.702040	-3.589019	-14.952810	-4.312606	-10.797720	-5.610872	-2.027600	 6.559038	 9.033609	-5.188889	 0.308190	 3.541030	-5.234859	 0.342567	 0.430617	 4.628707	 25.102320	-8.754355	-3.564829	-18.361190	 1.775877	 88.414820	 63.908950	 176.433600	 9.144600	 3.397872	 10.848250	-26.136600	-8.573004	 24.032570	 0.152299	-8.857994	 5.056594	 1.803333	 3.979147	-15.098590	 4.898592	 3.004813	-9.310344	 5.224449	 0.395017	 2.014677
-0.001785	 0.059213	 1.271979	 0.370718	 7.422373	 0.882592	 0.241157	-13.738310	 177.844600	 2.136975	-17.039250	 0.748701	 0.602018	 72.262480	-0.655721	-2.385832	 28.452790	-0.000001	 5.697148	-12.608510	-178.612600	-1.345314	-14.393460	 0.946144	 6.241818	 70.668560	 0.641800	 2.384659	 28.388700	-0.000001	-0.007189	 8.610217	 0.343956	-0.293119	-17.507600	-0.426259	 0.250417	 20.173260	 0.435786	-91.115840	 65.243900	-178.225200	-4.312624	-1.263207	-11.436050	 21.140810	-3.716852	-19.053340	-3.907644	-12.492130	-7.319290	-2.027600	 6.559038	 9.033609	-5.188889	 0.308190	 3.541030	-5.234859	 0.342567	 0.430617	 4.036529	 26.729620	-8.799396	-3.265850	-19.905800	 1.483551	 88.636810	 61.484810	 177.285800	 7.116671	 2.554298	 10.387480	-24.916240	-8.491925	 25.414530	-2.428205	-9.539657	 5.322664	 1.803333	 3.979147	-15.098590	 4.898592	 3.004813	-9.310344	 5.224449	 0.395017	 2.014677
-0.002102	 0.071091	 1.268761	 0.743868	 10.310100	 0.901081	-0.608750	-18.408420	 177.636600	 2.078079	-18.947800	 0.810480	 1.000280	 72.388280	-0.983727	-2.385833	 28.452760	 0.000004	 5.551163	-17.204580	-178.372900	-1.593363	-16.369260	 1.002491	 7.028461	 71.101590	 0.104943	 2.384659	 28.388700	-0.000001	 0.123222	 7.641326	 0.267604	-0.297113	-21.564050	-0.416034	-0.241442	 22.875330	 0.791983	-92.087690	 64.913860	 179.175500	-2.816021	 1.257021	-6.930844	 20.049200	-4.193971	-23.519170	-3.390163	-13.389330	-8.620019	-2.027600	 6.559038	 9.033609	-5.188889	 0.308190	 3.541030	-5.234859	 0.342567	 0.430617	 3.387694	 26.206830	-8.863843	-3.054765	-20.222100	 1.225685	 89.560810	 60.576320	 179.491600	 4.012581	 4.643500	 7.463306	-23.704950	-8.402672	 26.922620	-4.332540	-10.319270	 5.555328	 1.803333	 3.979147	-15.098590	 4.898592	 3.004813	-9.310344	 5.224449	 0.395017	 2.014677
-0.003689	 0.092536	 1.264131	 1.897956	 15.480780	 0.943448	-2.680437	-26.414660	 176.818900	 2.757396	-21.499000	 1.164234	 0.320934	 72.134160	-0.890032	-2.385833	 28.452760	 0.000004	 4.727269	-24.724550	-178.138900	-1.352189	-18.426400	 1.200839	 6.788780	 70.680200	 0.162735	 2.384659	 28.388700	-0.000001	 0.026524	 5.211675	 0.193851	-0.689880	-24.488930	-0.506859	-0.904698	 23.845980	 1.048558	-93.344700	 65.273760	 175.779200	-0.471820	 6.447371	-1.454531	 19.888380	-5.275493	-29.105090	-2.134879	-13.649540	-9.239077	-2.027600	 6.559038	 9.033609	-5.188889	 0.308190	 3.541030	-5.234859	 0.342567	 0.430617	 2.763061	 24.567780	-8.611358	-2.974797	-20.139280	 0.764064	 90.925220	 60.499850	-177.380800	-0.288867	 9.351164	 3.903111	-21.884550	-8.076411	 28.981510	-5.509703	-11.017850	 6.032318	 1.803333	 3.979147	-15.098590	 4.898592	 3.004813	-9.310344	 5.224449	 0.395017	 2.014677
-0.005807	 0.113643	 1.260773	 3.466123	 20.126480	 0.733445	-5.252525	-33.042560	 175.698900	 3.595177	-22.304860	 1.524718	-1.122923	 70.310330	-0.129238	-2.385833	 28.452760	 0.000004	 3.497105	-31.221140	-177.979300	-1.649182	-19.515190	 1.169522	 6.666378	 68.896840	 0.606104	 2.384659	 28.388700	-0.000001	-0.224560	 3.633423	 0.187055	-1.365757	-25.354450	-0.408912	-1.428946	 23.408000	 0.695186	-94.092380	 65.826910	 173.596000	 2.226563	 11.809310	 0.572218	 19.724120	-6.063169	-33.070220	-1.352857	-13.774620	-9.599186	-2.027600	 6.559038	 9.033609	-5.188889	 0.308190	 3.541030	-5.234859	 0.342567	 0.430617	 2.354886	 23.932740	-7.401016	-3.169160	-20.606290	 0.004174	 91.891390	 61.238000	-175.046800	-3.616734	 14.363100	 3.231027	-21.150270	-7.946972	 29.939290	-6.143113	-11.088090	 6.496771	 1.803333	 3.979147	-15.098590	 4.898592	 3.004813	-9.310344	 5.224449	 0.395017	 2.014677
-0.008814	 0.136625	 1.252606	 4.419285	 22.991870	 0.368154	-7.185411	-38.610430	 174.671600	 3.912405	-24.957300	 1.829431	-1.835333	 70.891630	 0.331886	-2.385833	 28.452750	 0.000004	 2.974633	-37.241380	-177.735300	-1.810111	-23.390500	 1.325707	 7.655770	 70.303750	-0.322212	 2.384659	 28.388700	-0.000001	-0.080555	 5.730583	 0.254955	-1.662146	-24.529920	 0.021031	-1.625034	 23.384840	 0.194767	-94.553880	 67.889560	 171.358000	 5.933602	 18.550130	-3.345782	 20.027530	-6.622427	-34.523590	-0.595572	-14.494130	-9.834465	-2.027600	 6.559038	 9.033609	-5.188889	 0.308190	 3.541030	-5.234859	 0.342567	 0.430617	 1.647576	 22.866310	-6.178479	-3.312951	-21.182930	-0.809722	 92.702510	 62.377800	-172.853600	-6.922575	 20.738220	 7.353975	-20.525610	-7.727074	 30.467730	-5.446149	-11.817510	 7.416011	 1.803333	 3.979147	-15.098590	 4.898592	 3.004813	-9.310344	 5.224449	 0.395017	 2.014677
-0.010592	 0.156172	 1.244267	 3.615272	 25.014230	 0.162610	-6.799702	-42.843070	 174.532300	 4.023997	-28.025990	 2.089741	-1.976093	 71.941540	 0.528588	-2.385833	 28.452750	 0.000004	 4.704731	-41.879180	-176.570600	-2.411050	-27.324410	 1.256304	 10.196130	 71.784930	-2.431218	 2.384659	 28.388700	-0.000001	 0.354762	 9.389800	 0.277886	-0.945530	-21.801830	 0.920291	-1.419268	 22.653420	 0.068733	-94.457950	 70.692990	 169.608500	 8.511211	 21.943290	-9.591743	 19.708070	-6.706061	-35.798050	-1.043319	-16.340400	-10.001570	-2.027600	 6.559038	 9.033609	-5.188889	 0.308190	 3.541030	-5.234859	 0.342567	 0.430617	 1.021413	 21.326940	-5.958637	-3.231919	-21.286910	-0.996221	 93.110880	 64.522420	-171.084400	-10.357890	 26.096670	 14.988380	-19.545250	-7.433731	 31.561920	-3.418054	-13.497170	 8.567269	 1.803333	 3.979147	-15.098590	 4.898592	 3.004813	-9.310344	 5.224449	 0.395017	 2.014677
